<svg xmlns="http://www.w3.org/2000/svg" version="1.1" width="600px" height="600px" xlink="http://www.w3.org/1999/xlink" style="overflow:hidden!important;"><g id="svga-group-wrapper" transform="scale(3 3)"><g id="svga-group-backs-single"><path id="SvgjsPath4410" d="M225 225H-25V-25h250V225z" fill="#88a65e" stroke-width="none" opacity="1"></path></g><g id="svga-group-subwrapper" ><g id="svga-group-hair-back" ><path id="SvgjsPath4243" d="M100.5,100.5h-1v-1h1V100.5z" fill="#080806" stroke-width="none" opacity="1" stroke="none"></path></g><g id="svga-group-humanbody-single"><path id="SvgjsPath4083" d="M195.417 199.778c-2.196-4.746-8.195-11.779-14.86-13.722 -8.239-2.403-26.837-5.308-33.733-6.923 -5.528-1.296-16.662-11.294-20.564-14.65 -0.7-0.6-1.273-1.839-1.287-2.76 -0.139-10.864 4.195-39.724 4.195-39.724H100 70.833c0 0 4.334 28.859 4.193 39.724 -0.011 0.921-0.587 2.16-1.285 2.76 -3.902 3.356-15.036 13.354-20.564 14.65 -6.897 1.615-25.495 4.619-33.733 7.022 -6.667 1.942-12.664 8.876-14.86 13.622 -3.708 8.008-4.584 22.5-4.584 35h100 100C200 222.278 199.123 207.786 195.417 199.778z" fill="#daa488" stroke-width="none" opacity="1" stroke="none"></path><path id="SvgjsPath4084" d="M159.156 184.058c24.342 3.542 34.586 8.708 37.794 50.721H200c0-12.5-0.877-26.992-4.583-35 -2.196-4.746-8.195-11.779-14.86-13.722 -8.239-2.403-26.837-5.308-33.733-6.923 -5.528-1.296-18.242-12.069-21.643-16.35 3.36 4.704 12.791 15.605 21.054 18.46C150.188 182.61 153.48 183.232 159.156 184.058zM53.766 181.244c8.263-2.854 17.693-13.756 21.054-18.46 -3.4 4.28-16.114 15.054-21.643 16.35 -6.896 1.615-25.494 4.619-33.733 7.022 -6.665 1.942-12.664 8.876-14.86 13.622 -3.706 8.008-4.583 22.5-4.583 35h3.05c3.188-41.744 13.475-47.183 37.794-50.721C46.52 183.232 49.813 182.61 53.766 181.244z" fill="#e9bfa9" stroke-width="none" opacity="1" stroke="none"></path><path id="SvgjsPath4085" d="M95.646 197.62c0 0-5.074-1.609-7.083-2.379 -10.449-4.009-44.395-6.607-44.395-6.607s35.754 1.419 43.644 2.779c-0.458-4.767-3.017-20.004-3.017-20.004s5.149 16.815 6.409 21.057C91.878 194.734 95.646 197.62 95.646 197.62zM106.445 196.278c-0.089 0.073-0.191 0.168-0.302 0.268C106.256 196.461 106.358 196.372 106.445 196.278zM95.646 197.62c0 0 2.893 2.992 4.347 3.03 1.91 0.051 4.828-2.899 6.151-4.104 -1.265 0.957-4.159 1.391-5.31 1.436C99.504 198.033 95.646 197.62 95.646 197.62zM116.664 190.101c-1.545 0.248-4.386 0.789-4.386 0.789l2.287-14.89c-0.646 3.071-4.474 16.211-8.12 20.278 1.91-1.616 6.158-2.391 8.324-2.704 10.236-1.484 10.232-1.483 41.062-4.94C155.831 188.634 126.76 188.479 116.664 190.101z" fill="#cb8b6a" stroke-width="none" opacity="1" stroke="none"></path><path id="SvgjsPath4086" d="M195.417 199.778c-2.196-4.746-8.195-11.779-14.86-13.722 -8.239-2.403-26.837-5.308-33.733-6.923 -5.528-1.296-16.662-11.294-20.564-14.65 -0.7-0.6-1.273-1.839-1.287-2.76 -0.139-10.864 4.195-39.724 4.195-39.724H100 70.833c0 0 4.334 28.859 4.193 39.724 -0.011 0.921-0.587 2.16-1.285 2.76 -3.902 3.356-15.036 13.354-20.564 14.65 -6.897 1.615-25.495 4.619-33.733 7.022 -6.667 1.942-12.664 8.876-14.86 13.622 -3.708 8.008-4.584 22.5-4.584 35h100 100C200 222.278 199.123 207.786 195.417 199.778z" fill="none" stroke="#ac5f38" stroke-width="1.5" opacity="1"></path></g><g id="svga-group-chinshadow-single"><path id="SvgjsPath4404" d="M75.602 162.779c7.126 5.302 15.497 9.087 24.401 9.087 8.902 0 17.269-3.781 24.394-9.08 -0.104-0.358-0.17-0.718-0.175-1.053 -0.088-6.862 1.561-20.607 2.82-30.025 -15.654-1.97-38.431-1.97-54.084 0 1.26 9.419 2.908 23.163 2.819 30.024C75.773 162.063 75.707 162.42 75.602 162.779z" fill="url(#SvgjsLinearGradient4405)" opacity="1"></path></g><g id="svga-group-clothes-single" ><path id="SvgjsPath4383" d="M128.857 237.978H70.72v-56.183c22.25 4.699 36.88 4.337 58.138 0V237.978z" fill="#f3f1f3" stroke-width="none" opacity="1"></path><path id="SvgjsPath4384" d="M107.44 237.709c-2.775 0-10.727 0.208-16.512-0.23l-0.01-0.171c-0.818-18.658 1.129-30.719 4.537-39.288l0.048-0.123 -0.093-0.093c-0.905-0.904-2.425-1.935-4.034-3.025 -1.611-1.093-3.275-2.221-4.336-3.246 0.625-0.732 1.395-1.454 2.348-2.201 0.245-0.125 1.162-0.843 5.974-4.971 0.214-0.184 0.345-0.296 0.362-0.31 0.818-0.178 2.138-0.293 3.738-0.293 2.183 0 4.731 0.221 6.512 0.563 1.561 1.458 3.451 5.329 4.158 7.17 -0.976 2.291-2.128 3.129-3.717 4.284 -0.774 0.563-1.652 1.201-2.652 2.112l-0.083 0.075 0.021 0.111c4.026 20.31 4.027 25.054 4.027 29.642 0.001 2.021 0.001 6.609 0.339 9.985C107.917 237.707 107.704 237.709 107.44 237.709z" fill="#131111" stroke-width="none" opacity="1"></path><path id="SvgjsPath4385" d="M110.35 191.495c-0.754-1.995-2.71-5.93-4.28-7.359 -2.876-0.563-7.983-0.843-10.47-0.24 -0.108 0.088-6.248 5.383-6.31 5.26 -0.906 0.708-1.788 1.504-2.52 2.39 2.061 2.076 6.655 4.556 8.5 6.4 -3.65 9.18-5.33 21.59-4.55 39.38 0.01 0.11 0.01 0.23 0.02 0.34 6.756 0.52 16.55 0.331 17.55 0.223 -1.16-11.307 1.438-10.455-4.39-39.853C106.968 195.241 108.865 195.04 110.35 191.495zM105.1 210.535c-0.021-0.05-0.04-0.1-0.051-0.13 2 10.55 1.38 18.632 2.891 26.972 -4.736-0.318-12.014-0.052-16.771-0.052 0.369-7.198 1.188-31.684 4.74-39.74 0.17-0.046 0.339-0.084 0.509-0.125l-1.032 34.736 2.747-35.066c0.02-0.002 0.04-0.005 0.06-0.008l1.801 32.605 0.417-32.734c0.026 0.001 0.051-0.001 0.077 0l4.199 36.355 -2.3-36.137c0.314 0.063 0.629 0.141 0.942 0.233 0.03 0 0.07 0.01 0.1 0.03C103.533 198.476 104.365 205.876 105.1 210.535zM104.219 196.726c-2.774-1.251-6.363-1.026-9.129 0.24 -1.681-1.813-4.08-3.077-7.53-5.391 0.55-0.479 1.26-1.07 2.21-1.81 0.08 0 3.48-2.771 3.54-2.83 0.92-0.84 1.74-1.79 2.52-2.62 2.93-0.12 7.23 0.02 9.82 0.14 1.5 1.876 2.931 4.696 4.01 6.94C107.699 194.266 105.759 195.545 104.219 196.726z" fill="#000000" stroke-width="none" opacity="1"></path><path id="SvgjsPath4386" d="M78.196 213.077c-11.534-40.071-6.325-29.581-9.399-45.32 2.028-4.813 3.958-10.44 5.042-11.598l0.08-0.086c2.292 24.007 8.958 13.636 23.784 27.722C89.228 189.449 81.372 204.127 78.196 213.077zM131.193 167.758c-1.448-3.702-4.077-9.127-5.215-10.331 1.424 20.678-15.146 16.551-24.35 26.2 8.812 5.713 17.173 20.66 20.172 29.455C134.92 169.568 127.85 188.673 131.193 167.758z" fill="#f3f1f4" stroke-width="none" opacity="1"></path><path id="SvgjsPath4387" d="M125.801 156.967c0 5.137-0.42 9.162-1.262 10.339 -2.443 5.809-13.103 9.853-16.39 11.51 -2.495 1.227-4.942 2.809-6.83 4.85 3.813 2.476 5.705 3.383 12.93 14.44 4.246 7.109 6.539 12.448 7.561 15.64 13.378-44.331 6.222-24.978 9.59-46.01C129.814 163.65 126.801 157.885 125.801 156.967zM129.449 176.495c-1.957 18.078-3.491 14.485-7.74 34.181 -2.716-8.644-11.075-22.913-19.43-27.091 3.937-2.957 5.031-3.131 9.729-5.279 14.396-6.42 14.985-12.385 14.138-20.271 1.207 1.423 3.125 6.161 4.692 9.521C129.979 170.702 129.589 175.194 129.449 176.495zM79.199 171.896c-4.408-3.649-3.16-8.162-5.189-16.215 -0.902 1-3.146 6.632-5.42 12.055 0.557 2.796 0.681 7.389 0.76 8.84 0.559 12.202 1.75 12.765 8.83 37.16 3.031-8.905 11.558-24.37 20.24-30.009C91.489 177.401 82.765 174.999 79.199 171.896zM84.659 197.405c-2.221 3.666-4.517 7.48-6.37 13.28 -4.442-20.269-5.999-16.964-7.73-34.16 -0.32-2.971-0.617-6.027-1.4-8.96 1.638-3.588 3.981-10.281 4.731-10.995 1.366 7.078 0.066 13.462 5.669 16.995 2.621 1.996 11.104 5.32 17.52 10.36C93.188 186.235 91.094 187.596 84.659 197.405z" fill="#cfc8d7" stroke-width="none" opacity="1"></path><path id="SvgjsPath4388" d="M120.319 209.824l-1.209-2.654c0 0 9.148-28.175 10.743-36.225C130.765 179.299 120.319 209.824 120.319 209.824zM78.879 208.721l1.436-3.259c0 0-8.573-26.467-10.168-34.517C69.235 179.299 78.879 208.721 78.879 208.721z" fill="#e1e0e1" stroke-width="none" opacity="1"></path><path id="SvgjsPath4389" d="M124.787 195.605c7.065-20.834 2.756-22.551 6.305-29.469 0.134-0.261 1.396 1.046 1.533 1.64 1.306 5.658 53.349 17.338 54.994 18.598 1.456 1.058 5.65 3.137 5.65 3.137 4.937 9.07 7.762 10.698 9.15 34.984 0.13 3.083-0.061 11.801-0.061 14.141l-85.559-0.676C117.004 230.169 117.999 216.15 124.787 195.605zM75.213 195.605c-7.065-20.834-2.756-22.551-6.305-29.469 -0.134-0.261-1.396 1.046-1.533 1.64 -1.306 5.658-53.349 17.338-54.994 18.598 -1.456 1.058-5.65 3.137-5.65 3.137 -4.937 9.07-7.762 10.698-9.15 34.984 -0.13 3.083 0.061 11.801 0.061 14.141l85.559-0.676C82.996 230.169 82.001 216.15 75.213 195.605z" fill="#cbe9ee" stroke-width="none" opacity="1" stroke="none"></path><path id="SvgjsPath4390" d="M130.307 190c-4.552 16.387-10.771 31.116-13.506 47.96 -0.89-0.007 1.491-22.695 7.986-42.354 7.065-20.834 2.756-22.551 6.305-29.469 0.077-0.15-0.619 1.976-0.223 2.432C130.723 176.296 132.625 182.272 130.307 190zM69.693 190c4.552 16.387 10.771 31.116 13.506 47.96 0.89-0.007-1.491-22.695-7.986-42.354 -7.065-20.834-2.756-22.551-6.305-29.469 -0.077-0.15 0.619 1.976 0.223 2.432C69.277 176.296 67.375 182.272 69.693 190z" fill="#a8d7df" stroke-width="none" opacity="1" stroke="none"></path><path id="SvgjsPath4391" d="M152.436 186.031c0 0-2.284 2.561-8.636 6.923 5.313-5.885 7.761-8.249 7.761-8.249L152.436 186.031zM154.611 197.906l-1.528-1.367c-4.538 13.781-7.571 20.587-12.828 36.618C147.799 218.831 149.599 213.745 154.611 197.906zM48.439 184.705c0 0 2.447 2.364 7.761 8.249 -6.352-4.362-8.636-6.923-8.636-6.923L48.439 184.705zM59.745 233.157c-5.257-16.031-8.29-22.837-12.828-36.618l-1.528 1.367C50.401 213.745 52.201 218.831 59.745 233.157z" fill="#87c5cf" stroke-width="none" opacity="1" stroke="none"></path><path id="SvgjsPath4392" d="M179.409 219.335c0-11.596 3.11-18.351 9.615-28.142 0.608 0.372 0.931 0.543 1.345 0.875C183.452 200.651 182.078 208.659 179.409 219.335zM141.312 230.703c6.113-16.703 8.06-23.228 12.107-34.388 -1.15-0.351-8.671-2.985-9.819-3.346 0.41 1 3.113 1.822 7.822 4.709C151.422 197.679 146.333 213.082 141.312 230.703zM149.533 184.577c0 0-3.352 4.14-6.664 8.328 3.388-2.67 5.748-5.644 8.691-8.2 -3.994-3.368-10.511-8.524-14.721-12.089C140.163 176.188 149.533 184.577 149.533 184.577zM202.073 238.634l0.286 0.002c0-2.34 0.19-11.058 0.061-14.141 -1.389-24.286-4.214-25.914-9.15-34.984 0 0-4.194-2.079-5.65-3.137 -1.334-1.021-38.794-9.922-52.49-15.88 16.011 10.971 46.282 15.027 55.24 21.574C194.702 195.235 200.535 222.337 202.073 238.634zM9.613 192.037c0.542-0.383 0.619-0.366 1.168-0.729 6.505 9.791 9.809 16.431 9.809 28.026C17.922 208.659 16.08 200.318 9.613 192.037zM48.578 197.679c4.709-2.887 7.412-3.709 7.822-4.709 -1.148 0.36-8.669 2.995-9.819 3.346 4.048 11.16 5.994 17.685 12.107 34.388C53.667 213.082 48.578 197.679 48.578 197.679zM63.16 172.616c-4.21 3.564-10.727 8.721-14.721 12.089 2.943 2.557 5.304 5.53 8.691 8.2 -3.313-4.188-6.664-8.328-6.664-8.328S59.837 176.188 63.16 172.616zM9.631 192.068c8.958-6.547 39.229-10.604 55.24-21.574 -13.696 5.958-51.156 14.858-52.49 15.88 -1.456 1.058-5.65 3.137-5.65 3.137 -4.937 9.07-7.762 10.698-9.15 34.984 -0.13 3.083 0.061 11.801 0.061 14.141l0.286-0.002C-0.535 222.337 5.298 195.235 9.631 192.068z" fill="#f1fcfd" stroke-width="none" opacity="1" stroke="none"></path><path id="SvgjsPath4393" d="M132.246 166.374c-0.049-0.293-0.443-0.634-0.738-0.657 -0.296-0.023-0.432 0.458-0.567 0.722 -3.549 6.918 0.414 8.333-6.651 29.167 -6.788 20.545-7.584 34.862-7.787 42.653l85.857 0.377c0-2.34 0.489-11.058 0.359-14.141 -1.389-24.286-4.313-26.113-9.25-35.184 0 0-4.394-2.179-5.85-3.236 -4.889-3.742-0.59 0.023-22.03-6 -17.576-5.135-18.525-6.577-24.899-8.35 -1.288-0.369-4.057-0.822-6.95-2.851C133.475 168.689 132.341 166.944 132.246 166.374zM116.974 237.31c3.729-23.564 6.085-29.73 11.296-47.274 3.522-11.104 1.576-17.408 3.254-22.54 0.088-0.268 0.467-0.282 0.571-0.017 2.434 6.214 9.238 7.656 18.834 17.047 -5.813 5.813-7.309 7.38-8.06 8.38 0.864 0.438 5.582 2.229 9.9 3.9 -0.245 0.767-13.415 38.02-13.57 38.52 10-21.578 11.292-28.211 14.22-39.01 -0.812-0.612-7.892-3.212-9.09-3.64 4.274-4.424 5.51-5.396 7.53-7.971 1.622 0-15.874-13.318-16.73-14.211 0.462 0.364 2.752 1.391 3.01 1.491 14.682 5.166 3.065 2.829 35.2 12.001 3.072 0.781 7.355 1.567 10.53 1.879 0.218 0.02 5.395 2.727 8.35 3.97 -7.189 7.475-11.797 17.133-12.81 29.5 3.219-12.666 4.951-19.29 13.14-28.819 7.62 15.422 6.755 13.195 9.23 47.71C181.167 237.413 149.559 237.227 116.974 237.31zM66.261 168.875c-2.894 2.028-5.662 2.481-6.95 2.851 -6.374 1.772-7.323 3.215-24.899 8.35 -21.44 6.023-17.142 2.258-22.03 6 -1.456 1.058-5.85 3.236-5.85 3.236 -4.937 9.07-7.861 10.897-9.25 35.184 -0.13 3.083 0.359 11.801 0.359 14.141l85.857-0.377c-0.203-7.791-0.999-22.108-7.787-42.653 -7.065-20.834-3.103-22.249-6.651-29.167 -0.136-0.264-0.271-0.745-0.567-0.722 -0.295 0.023-0.689 0.364-0.738 0.657C67.659 166.944 66.525 168.689 66.261 168.875zM-1.779 238.226c2.476-34.515 1.61-32.288 9.23-47.71 8.188 9.529 9.921 16.153 13.14 28.819 -1.013-12.367-5.62-22.025-12.81-29.5 2.955-1.243 8.132-3.95 8.35-3.97 3.175-0.312 7.458-1.098 10.53-1.879 32.135-9.172 20.519-6.835 35.2-12.001 0.258-0.101 2.548-1.127 3.01-1.491 -0.856 0.893-18.353 14.211-16.73 14.211 2.021 2.575 3.256 3.547 7.53 7.971 -1.198 0.428-8.278 3.027-9.09 3.64 2.928 10.799 4.22 17.432 14.22 39.01 -0.155-0.5-13.325-37.753-13.57-38.52 4.318-1.672 9.036-3.463 9.9-3.9 -0.751-1-2.247-2.567-8.06-8.38 9.596-9.391 16.4-10.833 18.834-17.047 0.104-0.266 0.483-0.251 0.571 0.017 1.678 5.132-0.269 11.436 3.254 22.54 5.211 17.544 7.567 23.71 11.296 47.274C50.441 237.227 18.833 237.413-1.779 238.226z" fill="#6ab4c0" stroke-width="none" opacity="1" stroke="none"></path></g><g id="svga-group-head" ><g id="svga-group-ears-left" ><path id="SvgjsPath4378" d="M47.001 83.231c-1.376-2.453-5.638-8.48-9.98-7.003 -2.749 0.935-3.293 3.993-3.735 6.693 -0.588 3.591 0.471 10.694 1.389 13.26 0.881 2.467 3.533 7.23 5.264 9.045 2.13 2.225 4.775 9.324 5.194 10.061 0.66 1.162 1.536 2.911 4.122 2.692 2.853-0.244 4.584-1.85 5.856-2.121C58.253 115.192 50.582 89.616 47.001 83.231z" fill="#daa488" stroke="#ac5f38" stroke-width="1.5" opacity="1"></path><path id="SvgjsPath4379" d="M44.197 98.104c-0.132-0.581 0.007-1.56 0.142-2.504 0.124-0.861 0.24-1.675 0.169-2.251 -0.267-2.154-1.773-6.249-2.757-8.467 -1.132-2.554-2.963-5.77-5.262-6.599 -0.95-0.343-1.575 0.067-1.938 0.484 -0.266 0.305-0.325 0.665-0.238 0.707 0.086 0.042 0.285-0.254 0.572-0.535 0.235-0.229 0.579-0.426 1.051-0.385 -0.19 1.073-1.167 6.883-0.744 10.845 0.333 3.115 1.593 5.442 1.79 5.791 0.029 0.367 0.077 0.726 0.148 1.075 0.929 4.547 4.971 9.717 6.378 11.409 0.259 0.313 0.531 0.497 0.598 0.423 0.066-0.076-0.094-0.387-0.353-0.7 -1.388-1.679-5.391-6.831-6.289-11.218 -0.952-4.656 2.318-11.556 3.048-13.017 0.371 0.685 0.687 1.344 0.93 1.893 0.19 0.431 0.402 0.936 0.619 1.479 -0.429 0.762-3.434 6.32-2.338 10.767 0.406 1.641 2.235 3.755 3.447 4.333 0.667 0.32 0.919 0.797 1.209 1.349 0.336 0.64 0.718 1.365 1.828 1.892 0.225 0.108 0.429 0.151 0.61 0.151 0.313 0 0.551-0.135 0.725-0.293 0.018 0.28 0.017 0.64 0.009 0.97 -0.012 0.431 0.042 0.783 0.137 0.791 0.094 0.008 0.196-0.332 0.207-0.76 0.016-0.526 0.013-1.177-0.072-1.488 -0.248-0.917-1.008-1.953-1.813-3.048C45.221 100.116 44.403 99.003 44.197 98.104zM36.95 94.073c-2.177-7.139 0.656-13.3 1.144-14.28 0.85 0.822 1.6 1.919 2.21 2.995C39.86 83.646 37.041 89.271 36.95 94.073zM46.341 104.515c-1.004-0.475-1.339-1.115-1.666-1.733 -0.293-0.559-0.598-1.136-1.369-1.505 -0.168-0.081-0.352-0.203-0.542-0.343 -2.486-6.263 0.272-9.001 0.963-9.562 0.211 0.766 0.369 1.468 0.439 2.031 0.063 0.517-0.052 1.339-0.167 2.134 -0.142 0.985-0.286 2.004-0.137 2.664 0.226 0.982 1.069 2.131 1.884 3.242 0.723 0.986 1.466 2.003 1.721 2.832C47.359 104.439 47.017 104.836 46.341 104.515z" fill="#ac5f38" stroke-width="none" opacity="1" stroke="none"></path></g><g id="svga-group-ears-right" ><path id="SvgjsPath4380" d="M152.736 83.231c1.377-2.453 5.639-8.48 9.98-7.003 2.75 0.935 3.293 3.993 3.736 6.693 0.588 3.591-0.471 10.694-1.389 13.26 -0.881 2.467-3.533 7.23-5.266 9.045 -2.129 2.225-4.775 9.324-5.193 10.061 -0.658 1.162-1.535 2.911-4.121 2.692 -2.854-0.244-4.584-1.85-5.857-2.121C141.484 115.192 149.156 89.616 152.736 83.231z" fill="#daa488" stroke="#ac5f38" stroke-width="1.5" opacity="1"></path><path id="SvgjsPath4381" d="M153.727 101.196c-0.805 1.096-1.564 2.131-1.813 3.048 -0.086 0.311-0.088 0.962-0.072 1.488 0.012 0.428 0.113 0.768 0.207 0.76s0.148-0.36 0.137-0.791c-0.008-0.331-0.008-0.69 0.01-0.97 0.174 0.158 0.412 0.293 0.725 0.293 0.182 0 0.385-0.043 0.609-0.151 1.109-0.526 1.492-1.252 1.828-1.892 0.289-0.552 0.543-1.028 1.209-1.349 1.213-0.578 3.041-2.692 3.447-4.333 1.096-4.447-1.908-10.005-2.338-10.767 0.217-0.544 0.43-1.049 0.619-1.479 0.244-0.549 0.559-1.208 0.93-1.893 0.73 1.46 4 8.361 3.049 13.017 -0.896 4.387-4.9 9.539-6.289 11.218 -0.258 0.313-0.418 0.624-0.352 0.7 0.066 0.074 0.338-0.109 0.598-0.423 1.406-1.692 5.449-6.862 6.379-11.409 0.07-0.35 0.117-0.708 0.146-1.075 0.197-0.349 1.459-2.676 1.791-5.791 0.422-3.961-0.555-9.772-0.744-10.845 0.473-0.042 0.814 0.156 1.051 0.385 0.287 0.281 0.486 0.577 0.572 0.535 0.086-0.042 0.027-0.402-0.238-0.707 -0.363-0.417-0.988-0.827-1.938-0.484 -2.299 0.83-4.131 4.045-5.262 6.599 -0.984 2.218-2.49 6.313-2.758 8.467 -0.072 0.576 0.045 1.39 0.17 2.251 0.135 0.945 0.273 1.924 0.141 2.504C155.336 99.003 154.518 100.116 153.727 101.196zM159.434 82.787c0.611-1.075 1.361-2.173 2.211-2.995 0.488 0.98 3.32 7.141 1.145 14.28C162.697 89.271 159.879 83.646 159.434 82.787zM152.27 104.275c0.254-0.829 0.998-1.846 1.721-2.832 0.816-1.111 1.658-2.26 1.885-3.242 0.148-0.66 0.004-1.679-0.137-2.664 -0.115-0.795-0.23-1.617-0.166-2.134 0.068-0.563 0.227-1.266 0.438-2.031 0.691 0.561 3.449 3.299 0.965 9.562 -0.191 0.14-0.375 0.263-0.543 0.343 -0.771 0.369-1.074 0.946-1.369 1.505 -0.326 0.618-0.662 1.258-1.666 1.733C152.721 104.836 152.379 104.439 152.27 104.275z" fill="#ac5f38" stroke-width="none" opacity="1" stroke="none"></path></g><g id="svga-group-faceshape-wrap" ><g id="svga-group-faceshape-single" ><path id="SvgjsPath4401" d="M100.002 0.867C66.381 0.813 39.186 28.343 39.134 62.366c-0.008 5.403 0.669 10.645 1.953 15.641l0.004 0c0.011 0.054 8.713 39.241 14.519 51.175 6.073 12.487 23.814 32.685 44.392 32.685 20.582 0 38.32-20.197 44.392-32.685 5.805-11.935 14.507-51.122 14.519-51.175l0.005 0c1.283-4.997 1.961-10.238 1.952-15.641C160.819 28.343 133.623 0.813 100.002 0.867z" fill="#daa488" stroke-width="none" opacity="1"></path><path id="SvgjsPath4402" d="M120.754 4.512c21.441 9.489 36.411 31.135 36.45 56.363 0.008 5.403-0.669 10.645-1.953 15.641l-0.005 0c-0.011 0.054-8.713 39.24-14.519 51.177 -5.709 11.738-21.608 32.469-40.725 32.469s-35.016-20.73-40.725-32.469c-5.806-11.937-14.507-51.123-14.519-51.177l-0.004 0c-1.284-4.997-1.962-10.238-1.953-15.641 0.038-25.229 15.008-46.874 36.45-56.363 -23.386 8.55-40.076 31.208-40.117 57.854 -0.008 5.403 0.669 10.645 1.953 15.641l0.004 0c0.011 0.054 8.713 39.241 14.519 51.175 6.073 12.487 23.814 32.685 44.392 32.685 20.579 0 38.319-20.197 44.392-32.685 5.805-11.935 14.507-51.122 14.519-51.175l0.005 0c1.283-4.997 1.961-10.238 1.952-15.641C160.83 35.72 144.14 13.062 120.754 4.512z" fill="#d29779" stroke-width="none" opacity="1"></path><path id="SvgjsPath4403" d="M100.002 0.867C66.381 0.813 39.186 28.343 39.134 62.366c-0.008 5.403 0.669 10.645 1.953 15.641l0.004 0c0.011 0.054 8.713 39.241 14.519 51.175 6.073 12.487 23.814 32.685 44.392 32.685 20.582 0 38.32-20.197 44.392-32.685 5.805-11.935 14.507-51.122 14.519-51.175l0.005 0c1.283-4.997 1.961-10.238 1.952-15.641C160.819 28.343 133.623 0.813 100.002 0.867z" fill="none" stroke="#ac5f38" stroke-width="1.5" opacity="1"></path></g></g><g id="svga-group-mouth-single" ><path id="SvgjsPath4368" d="M100.002 140.198c-5.219 0-6.442-2.251-6.442-2.251 6.903 1.402 12.884-0.096 12.884-0.096S104.592 140.198 100.002 140.198z" fill="url(#SvgjsLinearGradient4369)" opacity="1"></path><path id="SvgjsPath4372" d="M83.436 134.045c5.529-0.367 8.751-1.781 11.503-1.845 1.422-0.035 2.951 0.575 4.485 0.771 1.066 0.136 4.094-0.765 5.184-0.771 2.852-0.017 7.046 1.422 11.926 1.845 0.175 0.015 0 0 0 0s-7.268 4.597-16.549 4.597C89.479 138.642 83.436 134.045 83.436 134.045S83.259 134.056 83.436 134.045z" fill="#98a2a2" stroke-width="none" opacity="1" stroke="none"></path><path id="SvgjsPath4373" d="M116.994 133.91c-0.061-0.109-0.606-0.244-0.82-0.238 -0.392 0.011-0.842 0.262-1.648 0.271 -0.933 0.01-5.871 0.402-7.197 0.356 -2.674-0.094-4.802 0.44-7.342 0.44 -2.542 0-4.853-0.583-7.524-0.489 -1.327 0.048-6.085-0.297-7.019-0.308 -0.807-0.01-1.119-0.273-1.463-0.308 -0.241-0.023-0.833 0.11-0.95 0.222 -0.104 0.102 0.115 0.445 0.262 0.527 0.357 0.195 1.425 0.16 2.132 0.169 0.974 0.012 5.744 0.355 7.091 0.308 2.611-0.093 4.94 0.544 7.471 0.544 2.53 0 4.676-0.587 7.287-0.494 1.343 0.048 6.295-0.347 7.271-0.357 0.706-0.009 1.715-0.039 2.075-0.193C116.792 134.288 117.055 134.021 116.994 133.91z" fill="#4a7474" stroke-width="none" opacity="1" stroke="none"></path><path id="SvgjsPath4374" d="M88.386 135.437c9.831-0.289 6.257 0.233 10.942 0.392 2.369 0.085 9.812-0.924 12.748-0.869C103.053 138.602 94.777 138.226 88.386 135.437zM111.654 133.622c-5.961-1.694-10.568-0.265-11.703-0.185 -3.81 0.264-1.78-2.049-10.986 0.24 8.953-0.126 6.496 0.491 10.721 0.567C101.363 134.273 109.856 133.553 111.654 133.622z" fill="#a8aaaa" stroke-width="none" opacity="1" stroke="none"></path><path id="SvgjsPath4375" d="M92.763 135.67c4.978-0.262 4.379 1.022 10.036 0.243 1.552-0.212 2.205-0.288 3.822-0.221C101.79 137.59 96.695 137.254 92.763 135.67z" fill="#b1b1b1" stroke-width="none" opacity="1" stroke="none"></path></g><g id="svga-group-eyes-left" ><g id="svga-group-eyesback-left"><path id="SvgjsPath4268" d="M59.722 85.795c2.578 4.596 2.19 5.704 10.268 4.467 9.691 0 17.711-1.976 17.711-5.558 0-3.582-4.925-7.115-17.196-4.923C64.489 80.855 59.722 84 59.722 85.795z" fill="url(#SvgjsRadialGradient4269)" opacity="1"></path></g><g id="svga-group-eyesiriswrapper-left" transform="translate(0.25 0.25)"><g id="svga-group-eyesiriscontrol-left" ><g id="svga-group-eyesiris-left" ><path id="SvgjsPath4326" d="M72.59 83.677l-4.437-1.012C68.056 83.095 68 83.54 68 83.999c0 0.459 0.057 0.905 0.154 1.334L74 83.999 72.59 83.677z" fill="#ea2e2e" stroke-width="none" opacity="1"></path><path id="SvgjsPath4327" d="M69.313 87.738c0.559 0.7 1.271 1.268 2.086 1.661l2.6-5.399L69.313 87.738z" fill="#f09330" stroke-width="none" opacity="1"></path><path id="SvgjsPath4328" d="M74 89.999c0.933 0 1.813-0.219 2.6-0.599L74 84 74 89.999z" fill="#64398e" stroke-width="none" opacity="1"></path><path id="SvgjsPath4329" d="M74 84l4.688 3.738c0.554-0.693 0.955-1.51 1.158-2.404L74 84z" fill="#393b97" stroke-width="none" opacity="1"></path><path id="SvgjsPath4330" d="M74 83.999l1.826-0.416 4.02-0.918c-0.203-0.894-0.604-1.711-1.158-2.404L74 83.999z" fill="#00aa4f" stroke-width="none" opacity="1"></path><path id="SvgjsPath4331" d="M76.6 78.598c-0.788-0.38-1.667-0.599-2.6-0.599v5.999L76.6 78.598z" fill="#fae636" stroke-width="none" opacity="1"></path><path id="SvgjsPath4332" d="M71.398 78.599c-0.814 0.393-1.527 0.961-2.086 1.662l4.687 3.738L71.398 78.599z" fill="#9c2d91" stroke-width="none" opacity="1"></path><path id="SvgjsPath4333" d="M74 83.999l5.846 1.334C79.943 84.904 80 84.458 80 83.999s-0.057-0.905-0.154-1.334l-4.02 0.918L74 83.999z" fill="#ea2e2e" stroke-width="none" opacity="1"></path><path id="SvgjsPath4334" d="M74 83.999L74 83.999 74 83.999l2.601 5.401c0.815-0.394 1.528-0.962 2.087-1.662L74 83.999 74 83.999z" fill="#9b328d" stroke-width="none" opacity="1"></path><path id="SvgjsPath4335" d="M74 84L74 84 74 84 74 84 74 84 74 84 74 84l-2.6 5.4c0.787 0.38 1.667 0.599 2.6 0.599h0L74 84 74 84z" fill="#fde92b" stroke-width="none" opacity="1"></path><path id="SvgjsPath4336" d="M74 84L74 84 74 84 74 84 74 84 74 84 74 84 74 84 74 84 74 84 74 84l-5.845 1.334c0.203 0.894 0.605 1.712 1.158 2.405L74 84 74 84z" fill="#00aa4f" stroke-width="none" opacity="1"></path><path id="SvgjsPath4337" d="M74 83.999L74 83.999 74 83.999 74 83.999 74 83.999 74 83.999 74 83.999v-6c-0.934 0-1.813 0.219-2.601 0.599L74 83.999 74 83.999z" fill="#65378f" stroke-width="none" opacity="1"></path><path id="SvgjsPath4338" d="M74 83.999L74 83.999 74 83.999l4.688-3.739c-0.559-0.7-1.272-1.269-2.087-1.662L74 83.999 74 83.999z" fill="#ec9236" stroke-width="none" opacity="1"></path><path id="SvgjsPath4339" d="M74 83.999L74 83.999l-4.688-3.739c-0.554 0.693-0.955 1.511-1.158 2.404l4.436 1.013L74 83.999z" fill="#393b97" stroke-width="none" opacity="1"></path><path id="SvgjsPath4340" d="M74 77.999c3.314 0 6 2.686 6 6s-2.686 6-6 6 -6-2.686-6-6S70.686 77.999 74 77.999z" fill="#000000" stroke-width="none" opacity="0.3"></path><path id="SvgjsPath4341" d="M76.333 83.999c0 1.289-1.044 2.333-2.333 2.333s-2.333-1.045-2.333-2.333 1.044-2.333 2.333-2.333S76.333 82.71 76.333 83.999z" fill="#000000" stroke-width="none" opacity="1"></path><path id="SvgjsPath4342" d="M71.769 88.072c-0.313 0.313-0.931 0.202-1.38-0.246 -0.449-0.449-0.56-1.067-0.246-1.38 0.313-0.313 0.93-0.203 1.379 0.246C71.971 87.141 72.082 87.759 71.769 88.072z" fill="#ffffff" stroke-width="none" opacity="0.6"></path><path id="SvgjsPath4343" d="M78.539 82.884c-0.468 0.469-1.602 0.094-2.533-0.836s-1.305-2.065-0.837-2.533c0.469-0.469 1.604-0.095 2.533 0.836C78.633 81.281 79.008 82.416 78.539 82.884z" fill="#ffffff" stroke-width="none" opacity="0.9"></path></g></g></g><g id="svga-group-eyesfront-left"><path id="SvgjsPath4293" d="M54.8 84.999c0 13.807 8.507 25 19 25s19-11.193 19-25 -8.507-25-19-25S54.8 71.192 54.8 84.999zM59.722 85.795c0-1.795 4.768-4.939 10.782-6.014C82.775 77.589 87.7 81.123 87.7 84.704c0 3.582-8.02 5.558-17.711 5.558C61.912 91.499 62.3 90.391 59.722 85.795z" fill="#daa488" stroke-width="none" opacity="1" stroke="none"></path><path id="SvgjsPath4294" d="M58.697 86.046c-0.075 6.904 8.647 12.467 18.038 12.434 9.389-0.04 16.987-5.663 16.962-12.568 -0.023-6.903-7.647-12.467-17.04-12.431C67.265 73.519 58.799 76.602 58.697 86.046zM59.722 85.795c0-1.795 4.768-4.939 10.782-6.014C82.775 77.589 87.7 81.123 87.7 84.704c0 3.582-8.02 5.558-17.711 5.558C61.912 91.499 62.3 90.391 59.722 85.795z" fill="url(#SvgjsRadialGradient4295)" opacity="1"></path><path id="SvgjsPath4299" d="M59.722 85.795c2.578 4.596 2.19 5.704 10.268 4.467 9.691 0 17.711-1.976 17.711-5.558 0-3.582-4.925-7.115-17.196-4.923C64.489 80.855 59.722 84 59.722 85.795z" fill="url(#SvgjsRadialGradient4300)" opacity="1"></path><path id="SvgjsPath4303" d="M86.716 88.797c0 0-1.383 0.778-2.354 1.036 -1.209 0.318-4.997 0.895-11.562 1.795 7.49-0.531 10.48-0.82 11.762-1.189C85.578 90.147 86.716 88.797 86.716 88.797z" fill="#ac5f38" stroke-width="none" opacity="1" stroke="none"></path><path id="SvgjsPath4304" d="M87.757 83.463c0.062 0.073 0.057 0.18-0.011 0.247 -0.068 0.066-0.175 0.069-0.247 0.007l-3.871-3.383c-11.411-1.304-19.93 0.687-23.25 5.247l0.536 2.4 -3.114-2.69c3.172-4.526 6.306-7.915 25.828-6.735C85.933 80.808 87.137 81.935 87.757 83.463zM86.632 87.442c0.082-0.079 0.102-0.205 0.048-0.306 -0.052-0.103-0.166-0.156-0.279-0.135 -3.954 2.317-11.021 2.523-22.642 3.426l-2.25-1.384 1.653 2.046C75.744 90.501 85.006 89.756 86.632 87.442z" fill="#2c1630" stroke-width="none" opacity="1" stroke="none"></path></g></g><g id="svga-group-eyes-right" ><g id="svga-group-eyesback-right"><path id="SvgjsPath4276" d="M139.879 85.795c-2.578 4.596-2.19 5.704-10.268 4.467 -9.691 0-17.711-1.976-17.711-5.558 0-3.582 4.925-7.115 17.196-4.923C135.111 80.855 139.879 84 139.879 85.795z" fill="url(#SvgjsRadialGradient4277)" opacity="1"></path></g><g id="svga-group-eyesiriswrapper-right" transform="translate(-0.25 0.25)"><g id="svga-group-eyesiriscontrol-right" ><g id="svga-group-eyesiris-right" ><path id="SvgjsPath4344" d="M124.591 83.677l-4.438-1.012c-0.098 0.43-0.153 0.875-0.153 1.334 0 0.459 0.057 0.905 0.154 1.334l5.845-1.334L124.591 83.677z" fill="#ea2e2e" stroke-width="none" opacity="1"></path><path id="SvgjsPath4345" d="M121.313 87.738c0.559 0.7 1.272 1.268 2.086 1.661L125.999 84 121.313 87.738z" fill="#f09330" stroke-width="none" opacity="1"></path><path id="SvgjsPath4346" d="M126.001 89.999c0.933 0 1.813-0.219 2.6-0.599L126 84 126.001 89.999z" fill="#64398e" stroke-width="none" opacity="1"></path><path id="SvgjsPath4347" d="M126 84l4.688 3.738c0.553-0.693 0.953-1.51 1.157-2.404L126 84z" fill="#393b97" stroke-width="none" opacity="1"></path><path id="SvgjsPath4348" d="M126 83.999l1.825-0.416 4.021-0.918c-0.204-0.894-0.604-1.711-1.157-2.404L126 83.999z" fill="#00aa4f" stroke-width="none" opacity="1"></path><path id="SvgjsPath4349" d="M128.601 78.598c-0.788-0.38-1.668-0.599-2.601-0.599v5.999L128.601 78.598z" fill="#fae636" stroke-width="none" opacity="1"></path><path id="SvgjsPath4350" d="M123.398 78.599c-0.813 0.393-1.527 0.961-2.087 1.662l4.688 3.738L123.398 78.599z" fill="#9c2d91" stroke-width="none" opacity="1"></path><path id="SvgjsPath4351" d="M126 83.999l5.846 1.334c0.098-0.43 0.154-0.875 0.154-1.334s-0.057-0.905-0.154-1.334l-4.021 0.918L126 83.999z" fill="#ea2e2e" stroke-width="none" opacity="1"></path><path id="SvgjsPath4352" d="M126 83.999L126 83.999 126 83.999l2.601 5.401c0.814-0.394 1.529-0.962 2.088-1.662L126 83.999 126 83.999z" fill="#9b328d" stroke-width="none" opacity="1"></path><path id="SvgjsPath4353" d="M126 84L126 84 126 84 126 84 126 84 126 84 126 84l-2.601 5.4c0.787 0.38 1.668 0.599 2.601 0.599h0.001L126 84 126 84z" fill="#fde92b" stroke-width="none" opacity="1"></path><path id="SvgjsPath4354" d="M125.999 84L125.999 84 125.999 84 125.999 84 125.999 84 125.999 84 125.999 84 125.999 84 125.999 84 125.999 84 125.999 84l-5.845 1.334c0.204 0.894 0.604 1.712 1.158 2.405L125.999 84 125.999 84z" fill="#00aa4f" stroke-width="none" opacity="1"></path><path id="SvgjsPath4355" d="M126 83.999L126 83.999 126 83.999 126 83.999 126 83.999 126 83.999 126 83.999v-6c-0.934 0-1.813 0.219-2.601 0.599L126 83.999 126 83.999z" fill="#65378f" stroke-width="none" opacity="1"></path><path id="SvgjsPath4356" d="M126 83.999L126 83.999 126 83.999l4.688-3.739c-0.559-0.7-1.273-1.269-2.088-1.662L126 83.999 126 83.999z" fill="#ec9236" stroke-width="none" opacity="1"></path><path id="SvgjsPath4357" d="M125.999 83.999L125.999 83.999l-4.688-3.739c-0.553 0.693-0.953 1.511-1.157 2.404l4.437 1.013L125.999 83.999z" fill="#393b97" stroke-width="none" opacity="1"></path><path id="SvgjsPath4358" d="M126 77.999c3.313 0 6 2.686 6 6s-2.687 6-6 6 -6-2.686-6-6S122.687 77.999 126 77.999z" fill="#000000" stroke-width="none" opacity="0.3"></path><path id="SvgjsPath4359" d="M128.333 83.999c0 1.289-1.044 2.333-2.333 2.333s-2.333-1.045-2.333-2.333 1.044-2.333 2.333-2.333S128.333 82.71 128.333 83.999z" fill="#000000" stroke-width="none" opacity="1"></path><path id="SvgjsPath4360" d="M123.769 88.072c-0.313 0.313-0.93 0.202-1.379-0.246 -0.449-0.449-0.561-1.067-0.246-1.38 0.313-0.313 0.93-0.203 1.379 0.246C123.971 87.141 124.081 87.759 123.769 88.072z" fill="#ffffff" stroke-width="none" opacity="0.6"></path><path id="SvgjsPath4361" d="M130.539 82.884c-0.468 0.469-1.603 0.094-2.533-0.836s-1.305-2.064-0.837-2.533c0.469-0.469 1.604-0.095 2.533 0.836C130.633 81.281 131.008 82.416 130.539 82.884z" fill="#ffffff" stroke-width="none" opacity="0.9"></path></g></g></g><g id="svga-group-eyesfront-right"><path id="SvgjsPath4314" d="M125.801 59.999c-10.493 0-19 11.193-19 25s8.507 25 19 25 19-11.193 19-25S136.294 59.999 125.801 59.999zM129.611 90.262c-9.691 0-17.711-1.976-17.711-5.558 0-3.582 4.925-7.115 17.196-4.923 6.015 1.074 10.782 4.218 10.782 6.014C137.301 90.391 137.688 91.499 129.611 90.262z" fill="#daa488" stroke-width="none" opacity="1" stroke="none"></path><path id="SvgjsPath4315" d="M122.943 73.48c-9.393-0.036-17.017 5.528-17.04 12.431 -0.025 6.906 7.573 12.529 16.962 12.568 9.391 0.034 18.113-5.529 18.038-12.434C140.802 76.602 132.336 73.519 122.943 73.48zM129.611 90.262c-9.691 0-17.711-1.976-17.711-5.558 0-3.582 4.925-7.115 17.196-4.923 6.015 1.074 10.782 4.218 10.782 6.014C137.301 90.391 137.688 91.499 129.611 90.262z" fill="url(#SvgjsRadialGradient4316)" opacity="1"></path><path id="SvgjsPath4320" d="M139.879 85.795c-2.578 4.596-2.19 5.704-10.268 4.467 -9.691 0-17.711-1.976-17.711-5.558 0-3.582 4.925-7.115 17.196-4.923C135.111 80.855 139.879 84 139.879 85.795z" fill="url(#SvgjsRadialGradient4321)" opacity="1"></path><path id="SvgjsPath4324" d="M112.885 88.797c0 0 1.383 0.778 2.354 1.036 1.209 0.318 4.997 0.895 11.562 1.795 -7.49-0.531-10.48-0.82-11.762-1.189C114.022 90.147 112.885 88.797 112.885 88.797z" fill="#ac5f38" stroke-width="none" opacity="1" stroke="none"></path><path id="SvgjsPath4325" d="M115.973 78.555c19.522-1.179 22.656 2.209 25.828 6.735l-3.114 2.69 0.536-2.4c-3.32-4.56-11.839-6.551-23.25-5.247l-3.871 3.383c-0.072 0.063-0.179 0.06-0.247-0.007 -0.067-0.066-0.072-0.174-0.011-0.247C112.464 81.935 113.668 80.808 115.973 78.555zM136.438 91.09l1.653-2.046 -2.25 1.384c-11.621-0.903-18.688-1.109-22.642-3.426 -0.113-0.021-0.228 0.032-0.279 0.135 -0.054 0.102-0.034 0.227 0.048 0.306C114.595 89.756 123.856 90.501 136.438 91.09z" fill="#2c1630" stroke-width="none" opacity="1" stroke="none"></path></g></g><g id="svga-group-facehighlight-single" ><path id="SvgjsPath4075" d="M141 113.974c0.035 22.622-18.292 40.994-40.938 41.025 -22.642 0.037-41.028-18.273-41.063-40.9 -0.035-22.62 18.292-41.064 40.937-41.1C122.579 72.964 140.967 91.349 141 113.974z" fill="url(#SvgjsRadialGradient4076)" opacity="1"></path><path id="SvgjsPath4079" d="M137.5 53.999c0 20.711-16.789 37.5-37.499 37.5 -20.711 0-37.501-16.789-37.501-37.5s16.79-37.5 37.501-37.5C120.711 16.499 137.5 33.288 137.5 53.999z" fill="url(#SvgjsRadialGradient4080)" opacity="1"></path></g><g id="svga-group-eyebrows-left" ><path id="SvgjsPath4362" d="M54.872 71.479c0 0.55 13.681-0.174 15.036-0.312 23.276-2.375 24.726-7.885 21.625-7.963 -2.49-0.063-3.619 2.32-21.219 5.462C69.895 68.742 54.872 71.906 54.872 71.479z" fill="#080806" stroke-width="none" opacity="1" stroke="none"></path></g><g id="svga-group-eyebrows-right" ><path id="SvgjsPath4363" d="M145.13 71.479c0 0.55-13.681-0.174-15.036-0.312 -23.276-2.375-24.726-7.885-21.625-7.963 2.49-0.063 3.619 2.32 21.219 5.462C130.107 68.742 145.13 71.906 145.13 71.479z" fill="#080806" stroke-width="none" opacity="1" stroke="none"></path></g><g id="svga-group-nose-single" ><path id="SvgjsPath4376" d="M101.1 120.646c-0.471 0.511-0.856 0.45-1.301-0.08l-4.95-5.988H107L101.1 120.646z" fill="#cb8b6a" stroke-width="none" opacity="1" stroke="none"></path><path id="SvgjsPath4377" d="M93.461 115.507l6.435 5.235c0.537 0.437 0.744 0.271 0.464-0.367l-2.295-5.2c-0.112-0.252-0.146-0.676-0.078-0.943l1.676-26.41 -6.383 25.917C92.844 114.276 92.925 115.071 93.461 115.507z" fill="#ac5f38" stroke-width="none" opacity="1" stroke="none"></path></g><g id="svga-group-beardwrap" ><g id="svga-group-beard-single" ><path id="SvgjsPath4249" d="M76.19 153.24c9.75 0 11.54-0.14 14.22-1.85 3.11-1.91 5.32-7.48 2.27-14.37l0.33 0.07c3.87 0.79 6.25 1.26 13.58-0.2 -2 4.15-2.1 8.39-0.28 11.66 3.21 5.78 8.55 4.29 17.47 4.76 -9.45 9.92-16.94 14.35-24.29 14.35C90.64 167.65 81.24 160.27 76.19 153.24z" fill="#080806" stroke-width="none" opacity="1" stroke="none"></path><path id="SvgjsPath4250" d="M93.09 138.31c-0.17-0.48-0.37-0.96-0.58-1.42 4.2 0.85 6.44 1.44 14.26-0.13 -0.21 0.43-0.4 0.86-0.57 1.29C101.74 140.87 97.01 141.69 93.09 138.31zM112.77 152.81c-1.71-0.16-3.26-0.88-4.52-2 1.68 3.65 6.7 4.19 11.74 4.19 -4 0-3 3-6 0 0.82 1.63-0.66 4.66-1 5 0-0.37-0.41-2.16-1-3 -2 1 0 3-2 4 1-1-1-2-1-3 -1 2-1.46 3.02-2.46 5.02 0-2-0.59-2.24-1.59-3.24 0 2-0.94 2.22-1.94 4.22 0-1-2-2-1-4 -2 1-2 3-2 5 -1-1-1-2-1-4 -3 0-2 4-3 4 -1-1 0-4-2-6 1 2-3 3-2 5 -2-2 0-4-2-6 -0.73 0.73-1.46 2-1.8 3.02 0.01 0.33-0.03 0.65-0.2 0.98 0-0.27 0.07-0.61 0.2-0.98 -0.07-1.67-2.03-3.35-1.2-5.02 -1 1-2 3-2 4 0-2-2-4-2-4l-1 2c0 0 0.72-2.71-0.63-2.97 -0.13-0.01-0.25-0.02-0.37-0.03 0.15 0 0.27 0.01 0.37 0.03 4.83 0.55 9.12-1.76 10.88-5.59 -0.51 0.64-1.25 1.47-1.9 1.87 -2.68 1.71-4.42 1.83-14.36 1.83 1.81 2.54 2.51 3.08 3.73 4.48 16.88 16.53 29.43 11.24 44.27-4.4C120.58 153.02 115.46 153.2 112.77 152.81z" fill="#000000" stroke-width="none" opacity="1" stroke="none"></path><path id="SvgjsPath4251" d="M112.77 152.81c-5.97-0.57-10.12-7.74-6-16.05 -7.82 1.58-10.06 0.98-14.26 0.13 1.67 3.68 2.24 7.86 0.35 11.68 0.07 0.04-1.37 2.05-2.5 2.74 -2.68 1.71-4.42 1.83-14.36 1.83 1.81 2.54 2.51 3.08 3.73 4.48 16.88 16.53 29.43 11.24 44.27-4.4C120.58 153.02 115.46 153.2 112.77 152.81zM105.44 165.35c-10.42 3.18-21-3.33-28.67-11.73 5.19 0.22 17.81 2.42 17.93-9.78 -0.1-2.42-0.6-4.27-1.59-6.38 3.44 0.95 6.67 1.43 13.07-0.19 -4.19 8.26-0.1 15.93 6.87 16.46 1.89 0.33 7.5-0.13 9.99-0.21C118.75 157.52 111.05 163.37 105.44 165.35z" fill="#000000" stroke-width="none" opacity="1" stroke="none"></path></g></g><g id="svga-group-mustache-single" ><path id="SvgjsPath4091" d="M100,18.13L100,18.13L100,18.13L100,18.13z" fill="#2a232b" stroke-width="none" opacity="1"></path></g><g id="svga-group-hair-front" ><path id="SvgjsPath4245" d="M164.354 50.741c-0.165-3.292-1.526-8.266-2.485-11.305 -1.113 1.915-1.224 1.915-1.877 2.927 -0.21-1.212-1.637-13.946-6.382-21.2 -0.544 1.912 0.056 4.105-1.088 5.567 -2.565-5.342-6.325-14.564-14.831-20.638 0.87 2.274 0.411 2.914 0.605 3.684 -2.516-3.628-5.512-5.54-10.311-8.295 0 1.687 0.163 2.755 0.163 2.755 -1.758-2.027-5.78-7.704-10.939-10.969 0.243 0.876-0.251 2.776-0.075 3.715 -1.69-3.599-6.87-10.572-11.955-9.723 -1.45-1.439-2.657-3.886-3.964-5.516 -0.82 4.329-7.635 13.833-14.676 18.103 0.232-1.79-0.102-3.37-0.543-5.19 -1.27 2.61-5.393 7.668-8.387 8.851C77.91 2.195 77.677-0.3 77.677-0.3c-1.589 2.085-2.963 3.242-5.06 5.084 0.026-1.172 0.624-3.642 0.979-4.879 -3.298 1.462-6.569 5.342-8.968 8.154 -0.261-1.604 0.271-4.964 0.813-5.703C53.647 10.157 48.067 16.424 42.691 31.51c-0.351-0.752-0.593-1.671-0.707-4.166 -6.725 10.937-10.54 18.516-3.459 45.811 -1.445-0.857-2.233-1.482-3.38-2.611 1.693 11.378 4.166 15.151 12.679 24.861 4.188-4.89 1.939-13.492 1.253-17.578 0.099-6.172 1.819-5.103 2.072-7.899 0.114-1.255 0.776-3.367 0.659-4.622 -0.472-5.024 1.132-13.964 3.475-19.847 3.592-5.277 7.713-8.823 13.048-12.029 8.422-1.67 16.253 1.805 18.647 2.425 4.326 1.12 21.693 1.12 26.021 0 2.995-0.775 11.371-4.294 20.026-1.996 6.533 3.737 10.179 7.242 12.862 14.031 1.712 5.4 2.685 12.117 2.28 16.415 -0.117 1.255 0.449 4.367 0.563 5.623 0.104 1.147 1.568 3.689 1.842 4.807 1.123 4.612-1.238 16.915-1.238 16.915 -0.065 1.727 0.09 3.432 0.646 5.076 6.195-3.866 6.614-6.152 7.502-9.064 0.732-2.409 4.626-11.52 4.744-13.19 -0.79 0.872-2.409 1.954-3.271 2.362 0.708-2.756 3.952-7.96 4.58-10.966C164.64 60.571 164.625 56.232 164.354 50.741z" fill="#000000" stroke-width="none" opacity="1" stroke="none"></path><path id="SvgjsPath4246" d="M164.354 50.741c-0.165-3.292-1.526-8.266-2.485-11.305 -1.113 1.915-1.224 1.915-1.877 2.927 -0.21-1.212-1.637-13.946-6.382-21.2 -0.544 1.912 0.056 4.105-1.088 5.567 -2.565-5.342-6.325-14.564-14.831-20.638 0.87 2.274 0.411 2.914 0.605 3.684 -2.516-3.628-5.512-5.54-10.311-8.295 0 1.687 0.163 2.755 0.163 2.755 -1.758-2.027-5.78-7.704-10.939-10.969 0.243 0.876-0.251 2.776-0.075 3.715 -1.69-3.599-6.87-10.572-11.955-9.723 -1.45-1.439-2.657-3.886-3.964-5.516 -0.82 4.329-7.635 13.833-14.676 18.103 0.232-1.79-0.102-3.37-0.543-5.19 -1.27 2.61-5.393 7.668-8.387 8.851C77.91 2.195 77.677-0.3 77.677-0.3c-1.589 2.085-2.963 3.242-5.06 5.084 0.026-1.172 0.624-3.642 0.979-4.879 -3.298 1.462-6.569 5.342-8.968 8.154 -0.261-1.604 0.271-4.964 0.813-5.703C53.647 10.157 48.067 16.424 42.691 31.51c-0.351-0.752-0.593-1.671-0.707-4.166 -6.725 10.937-10.54 18.516-3.459 45.811 -1.445-0.857-2.233-1.482-3.38-2.611 1.646 11.061 4.046 14.951 11.998 24.078C43.336 88.193 38.709 82.69 37 75c2 1 5 3 7 4 -5-14-10-32-3-45 1 4 3.536 8.736 5.536 11.736C42.163 33.861 52 19 59 10c0 5-1 11 1 16 0-7 5-11 8-17 0 4-1 7 1 11 1-5 2-10 5-14 2 4 1 8 3 12 0-6 3-9 4-14 2.203 5.069 4 6 5 10C85 3 100.203 2.069 101.203-8.931 102.203-1.931 104 3 103 11c4-5 6-11 7-18 7 6 5 14 8 21 2-4 2-9 3-14 4 7 8 15 11 23 1-5 2.869-7.264 0-15 7 5 12 14 11 23 1-5 2-10 2-15 1 11 8 21 7 33 2-5 4-10 4-16 0.914 10.055 2.649 20.944-0.112 31.143C157.422 60.349 160 56.819 160 52c3 11-7 20-6 31 0-1.705 2.9-2.685 3.757-4.176 0.081-0.275 0.161-0.549 0.243-0.824 0 0.295-0.095 0.566-0.243 0.824 -1.587 5.382-2.937 10.756-4.976 15.966 3.552-2.768 3.972-4.738 4.7-7.128 0.732-2.409 4.626-11.52 4.744-13.19 -0.79 0.872-2.409 1.954-3.271 2.362 0.708-2.756 3.952-7.96 4.58-10.966C164.64 60.571 164.625 56.232 164.354 50.741z" fill="#080806" stroke-width="none" opacity="1" stroke="none"></path><path id="SvgjsPath4247" d="M161.665 37.305c-0.379 1.596-0.486 1.958-1.128 3.53 -0.481-5.606-2.956-14.695-7.356-21.02 -0.135 2.162-0.249 3.328-0.582 5.35 -1.185-4.271-6.48-13.985-15.768-20.25 0.117 0.35 0.243 0.7 0.368 1.05v0.01c0.269 0.782 0.497 1.646 0.749 2.51 -3.827-4.758-7.283-5.571-10.618-7.87 0.17 0.983 0.271 1.968 0.281 2.04 -4.046-5.492-7.033-7.687-10.743-9.77 0.037 0.462 0.146 2.427 0.123 3.628 -2.432-5.127-4.641-8.986-11.875-9.698 -0.518-1-2.313-4.095-4.139-5.98 -2.3 8.074-8.614 13.707-14.156 18.47 0-1.865-0.302-3.701-0.718-5.49 -2.252 4.016-3.98 6.186-8.262 9.45 0.077-0.766 0.157-3.07 0.097-4.47 -1.174 1.616-3.048 3.649-5.119 5.41 0 0 1.164-4.899 1.174-4.95 -0.156 0.08-0.313 0.15-0.476 0.25 -0.97 0.244-5.192 2.951-8.911 7.81 0.362-3.423 1.047-4.68 1.29-5.68C54.794 7.997 45.986 17.907 42.5 30.575c-0.183-1.78-0.263-3.29-0.263-3.85 -5.115 6.421-7.534 13.02-7.872 14.68 -2.056 9.273 0.458 24.735 3.51 31.24 -1.917-1.524-0.184 0.004-3.2-2.73 0 4.709 1 8.023 2.725 12.09 2.438 5.747 5.88 9.351 10.424 13.4 -4.686-5.73-11.09-13.702-12.354-24.13 0.847 0.833 1.34 1.163 2.793 2.27h0.01c0 0.01 0 0.01 0 0.01 0.647 0.445 0.262 0.244 1.017 0.67 -7.5-27.167-2.066-37.896 2.511-46.39 0.124 3.95 0.819 5.709 2.144 7.9 -0.678-1.744-0.593-1.174-1.116-3.29 3.622-11.552 12.162-20.972 21.352-28.78 0.241-0.2 0.474-0.39 0.717-0.57 -0.32 0.826-0.824 3.42-0.824 5.01 -2.103 2.984-2.484 5.539-2.676 6.63 0.333-1 0.693-2.642 2.686-5.36v-0.01c2.599-4.016 7.259-7.938 9.27-9.3 -1.309 4.38-1.364 6.104-1.289 9.34 0.189-1.823 0.17-1.918 0.61-4.38 1.673-1.295 3.37-2.965 4.868-4.95 -0.109 2.301 0.029 5.486-1.271 8.33 1.1-1.655 1.532-3.7 1.532-4.7 1.309-0.804 4.459-2.157 8.106-8.4 0.789 5.342 0.201 8.289-0.592 10.43 0.645-1.211 1.512-2.889 1.512-5.79 6.763-4.663 11.506-8.768 14.235-16.83 0.076-0.31 0.156-0.61 0.212-0.91 1.518 2.183 7.604 11.9 6.382 14.49 1.547-1.57-1.223-7.455-2.308-9.47 7.645 1.914 8.36 4.039 13.572 14.82 -0.604-2.008-1.115-3.768-1.461-4.75 0.128-1.828 0.006-2.7-0.091-3.7 5.226 4.036 13.838 13.564 13.838 20.81 0.431-2.713 0.241-5.092-1.939-9.13 -0.271-0.49-0.543-0.97-0.836-1.39 -0.071-0.628-0.337-1.92-0.337-1.92 1.802 1.904 5.755 2.333 10.442 9.38 0.621 0.848 3.49 6.394 4.625 8.37 -2.375-6.62-3.041-7.672-3.878-9.23 -0.4-1.75-0.362-1.621-0.99-3.44 10.538 10.395 14.488 16.94 15.863 31.69 0.243-3.948 0.12-7.996-1.017-11.76 0.323-1.404 0.551-2.975 0.715-4.49 0.695 1.441 3.522 8.543 4.908 15.4 1.206 6.061 1.19 9.764 0.891 13.85 1.025-4.236 1.109-8.009 0.961-9.49 0.363-0.564 0.646-1.233 0.892-1.78 1.945 10.561 4.878 19.245-3.636 37.52 0.972-0.517 2.738-1.491 3.782-2.74 0 0-2.979 7.104-4.577 11.66 -2.787 6.939-2.47 6.195-7.099 9.82 5.116-2.12 6.527-5.081 8.205-9.4 3.162-9.217 2.862-6.158 5.255-15.11 -1.086 1.406-1.966 2.511-3.328 3.68C169.403 59.004 164.447 47.467 161.665 37.305z" fill="#000000" stroke-width="none" opacity="1" stroke="none"></path></g><g id="svga-group-glasses-single" ><path id="SvgjsPath4364" d="M148.74 83.98c-0.07 5.17-2.36 10.62-5.3 14.98 -2.86 4.24-10.31 5.75-15.82 5.75 -4.5 0-8.51-0.92-11.02-2.53 -4.73-3.04-9.81-10.61-10.93-17.83C115.84 78.24 136.81 78.24 148.74 83.98zM51.26 83.28c-0.14 5.38 2.23 11.13 5.3 15.68 2.86 4.24 10.31 5.75 15.82 5.75 4.5 0 8.51-0.92 11.02-2.53 4.59-2.95 9.5-10.16 10.81-17.18C83.4 78.66 62.6 77.97 51.26 83.28z" fill="#ffffff" stroke-width="none" opacity="0.2"></path><path id="SvgjsPath4365" d="M148.74 83.98c-11.93-5.73-32.9-5.74-43.06 0.36 -0.17-1.1-0.25-2.19-0.23-3.26 0.22-8.25 12.02-11.18 22.06-11.18 7.08 0 15.44 1.47 18.14 4.74C147.91 77.39 148.79 80.62 148.74 83.98zM72.49 69.9c-7.08 0-15.44 1.47-18.14 4.74 -2.1 2.55-3.01 5.53-3.09 8.64 11.35-5.31 32.14-4.62 42.94 1.71 0.25-1.32 0.38-2.63 0.34-3.91C94.32 72.83 82.52 69.9 72.49 69.9z" fill="#ffffff" stroke-width="none" opacity="0.4"></path><path id="SvgjsPath4366" d="M154.48 72.86c-0.6-2.41-28.01-7.28-42.24-2.39 -3.44 1.18-5.82 2.23-7.24 3.72l0-0.02c-0.5 0.88-1.75 1.18-2.64 0.85 -1.6-0.61-3.22-0.58-4.72 0 -0.88 0.34-2.14 0.03-2.64-0.85l0 0.02c-1.42-1.49-3.79-2.53-7.24-3.72 -14.23-4.89-41.64-0.01-42.24 2.39 -0.23 0.95-0.54 6.06-0.52 7.89 0.02 1.83 1.16 1.69 2.87 2.49 0.66 0.31 2.04 2.67 2.17 3.64 0.63 4.54 2.44 8.75 5.26 12.93 4.82 7.14 21.71 8.27 28.91 3.64 4.98-3.2 10.14-10.73 11.51-18.22 0.27-1.49 0.52-2.65 0.71-3.65l0.01 0.05c0.36-1.23 1.97-1.83 3.57-1.86 1.6 0.03 3.21 0.63 3.57 1.86l0.01-0.05c0.18 1 0.44 2.16 0.71 3.65 1.37 7.49 6.53 15.02 11.51 18.22 7.2 4.63 24.09 3.5 28.91-3.64 2.82-4.18 4.63-8.39 5.26-12.93 0.13-0.98 1.51-3.34 2.17-3.64 1.71-0.8 2.86-0.65 2.87-2.49C155.02 78.92 154.71 73.8 154.48 72.86zM83.12 101.75c-6.38 4.1-22.02 3.04-26.15-3.07 -4.7-6.98-7.82-16.94-2.24-23.72 5.38-6.53 38.94-7.32 39.31 6.13C94.26 88.99 88.46 98.32 83.12 101.75zM143.03 98.68c-4.13 6.12-19.77 7.17-26.15 3.07 -5.34-3.43-11.14-12.76-10.92-20.66 0.37-13.45 33.93-12.66 39.31-6.13C150.85 81.73 147.73 91.7 143.03 98.68z" fill="#268135" stroke-width="none" opacity="1" stroke="none"></path><path id="SvgjsPath4367" d="M45.37 73.94c0.05-0.5 0.1-0.89 0.15-1.09 0.6-2.41 28.01-7.28 42.24-2.39 3.44 1.18 5.82 2.23 7.24 3.72l0-0.02C95 74.15 73 62.54 45.37 73.94zM153.92 82.5c0.67-0.3 1.07-0.7 1.08-1.77 0.02-1.82-0.29-6.94-0.52-7.89 -0.6-2.41-28.01-7.28-42.24-2.39 -3.28 1.13-5.59 2.14-7.03 3.52 7.52-5.95 38.17-7.14 46.39 1.02C153.3 76.69 153.84 79.91 153.92 82.5z" fill="#399047" stroke-width="none" opacity="1" stroke="none"></path></g></g></g><rect id="SvgjsRect4060" width="200" height="15" x="0" y="185" fill="#ecf0f1" opacity="0.5" style="display:none;"></rect><text id="SvgjsText4061" font-family="&quot;Roboto&quot;, &quot;Helvetica Neue&quot;, Helvetica, Arial, sans-serif" style="font-size:0.84em;font-family:&quot;Roboto&quot;, &quot;Helvetica Neue&quot;, Helvetica, Arial, sans-serif;text-anchor:middle;font-weight:400;display:none;" font-size="0.84em" text-anchor="middle" font-weight="400" fill="#000000" x="100" y="185"><tspan id="SvgjsTspan4062" dy="1.2em" x="100" style="font-size:0.84em;font-family:&quot;Roboto&quot;, &quot;Helvetica Neue&quot;, Helvetica, Arial, sans-serif;text-anchor:middle;font-weight:400;">www.creartuavatar.com</tspan></text></g><defs id="SvgjsDefs4025"><radialGradient id="SvgjsRadialGradient4076" cx="100" cy="114" r="41" gradientUnits="userSpaceOnUse" class="svga-on-canvas-facehighlight-gradient-single-0"><stop id="SvgjsStop4077" stop-opacity="0.5" stop-color="#e9bfa9" offset="0" ></stop><stop id="SvgjsStop4078" stop-opacity="0" stop-color="#daa488" offset="0.9" ></stop></radialGradient><radialGradient id="SvgjsRadialGradient4080" cx="100" cy="54" r="37" gradientUnits="userSpaceOnUse" class="svga-on-canvas-facehighlight-gradient-single-1"><stop id="SvgjsStop4081" stop-opacity="0.5" stop-color="#e9bfa9" offset="0" ></stop><stop id="SvgjsStop4082" stop-opacity="0" stop-color="#daa488" offset="0.9" ></stop></radialGradient><radialGradient id="SvgjsRadialGradient4165" cx="-568.659" cy="-521.042" r="59.751" gradientTransform="matrix(0.096 -0.0248 0.0245 0.0961 141.2814 119.9893)" gradientUnits="userSpaceOnUse" class="svga-on-canvas-eyesiris-gradient-left-1"><stop id="SvgjsStop4166" stop-opacity="1" stop-color="#ffffff" offset="0" ></stop><stop id="SvgjsStop4167" stop-opacity="0" stop-color="#ffffff" offset="1" ></stop></radialGradient><radialGradient id="SvgjsRadialGradient4169" cx="-582.838" cy="-519.099" r="59.745" gradientTransform="matrix(0.0991 8.856319e-004 -0.0011 0.0991 131.1134 135.9855)" gradientUnits="userSpaceOnUse" class="svga-on-canvas-eyesiris-gradient-left-2"><stop id="SvgjsStop4170" stop-opacity="1" stop-color="#ffffff" offset="0" ></stop><stop id="SvgjsStop4171" stop-opacity="0" stop-color="#ffffff" offset="1" ></stop></radialGradient><linearGradient id="SvgjsLinearGradient4175" x1="122.67" y1="88.268" x2="123.606" y2="87.152" gradientTransform="matrix(1 0 0 1 -52 0)" gradientUnits="userSpaceOnUse" class="svga-on-canvas-eyesiris-gradient-left-5"><stop id="SvgjsStop4176" stop-opacity="1" stop-color="#ffffff" offset="0" ></stop><stop id="SvgjsStop4177" stop-opacity="0" stop-color="#ffffff" offset="1" ></stop></linearGradient><linearGradient id="SvgjsLinearGradient4179" x1="127.212" y1="82.296" x2="126.463" y2="83.189" gradientTransform="matrix(1 0 0 1 -52 0)" gradientUnits="userSpaceOnUse" class="svga-on-canvas-eyesiris-gradient-left-6"><stop id="SvgjsStop4180" stop-opacity="1" stop-color="#ffffff" offset="0" ></stop><stop id="SvgjsStop4181" stop-opacity="0" stop-color="#ffffff" offset="1" ></stop></linearGradient><linearGradient id="SvgjsLinearGradient4183" x1="129.636" y1="79.822" x2="127.91" y2="81.879" gradientTransform="matrix(1 0 0 1 -52 0)" gradientUnits="userSpaceOnUse" class="svga-on-canvas-eyesiris-gradient-left-7"><stop id="SvgjsStop4184" stop-opacity="1" stop-color="#ffffff" offset="0" ></stop><stop id="SvgjsStop4185" stop-opacity="0" stop-color="#ffffff" offset="1" ></stop></linearGradient><radialGradient id="SvgjsRadialGradient4188" cx="-568.654" cy="-521.042" r="59.752" gradientTransform="matrix(0.096 -0.0248 0.0245 0.0961 193.2804 119.9894)" gradientUnits="userSpaceOnUse" class="svga-on-canvas-eyesiris-gradient-right-1"><stop id="SvgjsStop4189" stop-opacity="1" stop-color="#ffffff" offset="0" ></stop><stop id="SvgjsStop4190" stop-opacity="0" stop-color="#ffffff" offset="1" ></stop></radialGradient><radialGradient id="SvgjsRadialGradient4192" cx="-582.833" cy="-519.102" r="59.747" gradientTransform="matrix(0.0991 8.856319e-004 -0.0011 0.0991 183.1126 135.9856)" gradientUnits="userSpaceOnUse" class="svga-on-canvas-eyesiris-gradient-right-2"><stop id="SvgjsStop4193" stop-opacity="1" stop-color="#ffffff" offset="0" ></stop><stop id="SvgjsStop4194" stop-opacity="0" stop-color="#ffffff" offset="1" ></stop></radialGradient><linearGradient id="SvgjsLinearGradient4198" x1="122.67" y1="88.268" x2="123.606" y2="87.152" gradientUnits="userSpaceOnUse" class="svga-on-canvas-eyesiris-gradient-right-5"><stop id="SvgjsStop4199" stop-opacity="1" stop-color="#ffffff" offset="0" ></stop><stop id="SvgjsStop4200" stop-opacity="0" stop-color="#ffffff" offset="1" ></stop></linearGradient><linearGradient id="SvgjsLinearGradient4202" x1="127.212" y1="82.296" x2="126.463" y2="83.189" gradientUnits="userSpaceOnUse" class="svga-on-canvas-eyesiris-gradient-right-6"><stop id="SvgjsStop4203" stop-opacity="1" stop-color="#ffffff" offset="0" ></stop><stop id="SvgjsStop4204" stop-opacity="0" stop-color="#ffffff" offset="1" ></stop></linearGradient><linearGradient id="SvgjsLinearGradient4206" x1="129.636" y1="79.822" x2="127.91" y2="81.879" gradientUnits="userSpaceOnUse" class="svga-on-canvas-eyesiris-gradient-right-7"><stop id="SvgjsStop4207" stop-opacity="1" stop-color="#ffffff" offset="0" ></stop><stop id="SvgjsStop4208" stop-opacity="0" stop-color="#ffffff" offset="1" ></stop></linearGradient><radialGradient id="SvgjsRadialGradient4269" cx="126.289" cy="84.919" r="10.712" gradientTransform="matrix(-1 0 0 1 200 0)" gradientUnits="userSpaceOnUse" class="svga-on-canvas-eyesback-gradient-left-0"><stop id="SvgjsStop4270" stop-opacity="1" stop-color="#ffffff" offset="0" ></stop><stop id="SvgjsStop4271" stop-opacity="1" stop-color="#fdfefe" offset="0.544" ></stop><stop id="SvgjsStop4272" stop-opacity="1" stop-color="#f6f8f9" offset="0.74" ></stop><stop id="SvgjsStop4273" stop-opacity="1" stop-color="#eaeff2" offset="0.879" ></stop><stop id="SvgjsStop4274" stop-opacity="1" stop-color="#d9e3e8" offset="0.992" ></stop><stop id="SvgjsStop4275" stop-opacity="1" stop-color="#d8e2e7" offset="1" ></stop></radialGradient><radialGradient id="SvgjsRadialGradient4277" cx="125.89" cy="84.919" r="10.712" gradientUnits="userSpaceOnUse" class="svga-on-canvas-eyesback-gradient-right-0"><stop id="SvgjsStop4278" stop-opacity="1" stop-color="#ffffff" offset="0" ></stop><stop id="SvgjsStop4279" stop-opacity="1" stop-color="#fdfefe" offset="0.544" ></stop><stop id="SvgjsStop4280" stop-opacity="1" stop-color="#f6f8f9" offset="0.74" ></stop><stop id="SvgjsStop4281" stop-opacity="1" stop-color="#eaeff2" offset="0.879" ></stop><stop id="SvgjsStop4282" stop-opacity="1" stop-color="#d9e3e8" offset="0.992" ></stop><stop id="SvgjsStop4283" stop-opacity="1" stop-color="#d8e2e7" offset="1" ></stop></radialGradient><radialGradient id="SvgjsRadialGradient4285" cx="126.289" cy="84.919" r="10.712" gradientTransform="matrix(-1 0 0 1 200 0)" class="svga-on-canvas-eyesfront-gradient-left-0"><stop id="SvgjsStop4286" stop-opacity="1" stop-color="#ffffff" offset="0" ></stop><stop id="SvgjsStop4287" stop-opacity="1" stop-color="#fdfefe" offset="0.544" ></stop><stop id="SvgjsStop4288" stop-opacity="1" stop-color="#f6f8f9" offset="0.74" ></stop><stop id="SvgjsStop4289" stop-opacity="1" stop-color="#eaeff2" offset="0.879" ></stop><stop id="SvgjsStop4290" stop-opacity="1" stop-color="#d9e3e8" offset="0.992" ></stop><stop id="SvgjsStop4291" stop-opacity="1" stop-color="#d8e2e7" offset="1" ></stop></radialGradient><radialGradient id="SvgjsRadialGradient4295" cx="123.715" cy="85.489" fx="135.434" fy="85.522" r="16.667" gradientTransform="matrix(0.9998 0.0208 0.0166 -0.7998 -48.826 151.2907)" gradientUnits="userSpaceOnUse" class="svga-on-canvas-eyesfront-gradient-left-3"><stop id="SvgjsStop4296" stop-opacity="1" stop-color="#cb8b6a" offset="0" ></stop><stop id="SvgjsStop4297" stop-opacity="0.3" stop-color="#cb8b6a" offset="0.7" ></stop><stop id="SvgjsStop4298" stop-opacity="0" stop-color="#daa488" offset="1" ></stop></radialGradient><radialGradient id="SvgjsRadialGradient4300" cx="122.874" cy="101.325" r="26.878" gradientTransform="matrix(-1 0 0 0.7923 200 21.0491)" gradientUnits="userSpaceOnUse" class="svga-on-canvas-eyesfront-gradient-left-4"><stop id="SvgjsStop4301" stop-opacity="0" stop-color="#000000" offset="0.95" ></stop><stop id="SvgjsStop4302" stop-opacity="0.2" stop-color="#000000" offset="1" ></stop></radialGradient><radialGradient id="SvgjsRadialGradient4306" cx="125.89" cy="84.919" r="10.712" gradientUnits="userSpaceOnUse" class="svga-on-canvas-eyesfront-gradient-right-0"><stop id="SvgjsStop4307" stop-opacity="1" stop-color="#ffffff" offset="0" ></stop><stop id="SvgjsStop4308" stop-opacity="1" stop-color="#fdfefe" offset="0.544" ></stop><stop id="SvgjsStop4309" stop-opacity="1" stop-color="#f6f8f9" offset="0.74" ></stop><stop id="SvgjsStop4310" stop-opacity="1" stop-color="#eaeff2" offset="0.879" ></stop><stop id="SvgjsStop4311" stop-opacity="1" stop-color="#d9e3e8" offset="0.992" ></stop><stop id="SvgjsStop4312" stop-opacity="1" stop-color="#d8e2e7" offset="1" ></stop></radialGradient><radialGradient id="SvgjsRadialGradient4316" cx="123.315" cy="85.489" fx="135.034" fy="85.522" r="16.667" gradientTransform="matrix(-0.9998 0.0208 -0.0166 -0.7998 248.0273 151.299)" gradientUnits="userSpaceOnUse" class="svga-on-canvas-eyesfront-gradient-right-3"><stop id="SvgjsStop4317" stop-opacity="1" stop-color="#cb8b6a" offset="0" ></stop><stop id="SvgjsStop4318" stop-opacity="0.3" stop-color="#cb8b6a" offset="0.7" ></stop><stop id="SvgjsStop4319" stop-opacity="0" stop-color="#daa488" offset="1" ></stop></radialGradient><radialGradient id="SvgjsRadialGradient4321" cx="122.475" cy="101.325" r="26.878" gradientTransform="matrix(1 0 0 0.7923 0 21.0491)" gradientUnits="userSpaceOnUse" class="svga-on-canvas-eyesfront-gradient-right-4"><stop id="SvgjsStop4322" stop-opacity="0" stop-color="#000000" offset="0.95" ></stop><stop id="SvgjsStop4323" stop-opacity="0.2" stop-color="#000000" offset="1" ></stop></radialGradient><linearGradient id="SvgjsLinearGradient4369" x1="100" y1="140" x2="100" y2="138" gradientUnits="userSpaceOnUse" class="svga-on-canvas-mouth-gradient-single-0"><stop id="SvgjsStop4370" stop-opacity="1" stop-color="#d29779" offset="0.1" ></stop><stop id="SvgjsStop4371" stop-opacity="1" stop-color="#cb8b6a" offset="1" ></stop></linearGradient><linearGradient id="SvgjsLinearGradient4405" x1="100" y1="171" x2="100" y2="130" gradientUnits="userSpaceOnUse" class="svga-on-canvas-chinshadow-gradient-single-0"><stop id="SvgjsStop4406" stop-opacity="0.8" stop-color="#cb8b6a" offset="0" ></stop><stop id="SvgjsStop4407" stop-opacity="1" stop-color="#ac5f38" offset="0.7" ></stop></linearGradient></defs></svg>